<?xml version="1.0" encoding="UTF-8" standalone="no"?>
<!-- Created with Inkscape (http://www.inkscape.org/) -->

<svg
   xmlns:dc="http://purl.org/dc/elements/1.1/"
   xmlns:cc="http://creativecommons.org/ns#"
   xmlns:rdf="http://www.w3.org/1999/02/22-rdf-syntax-ns#"
   xmlns:svg="http://www.w3.org/2000/svg"
   xmlns="http://www.w3.org/2000/svg"
   xmlns:sodipodi="http://sodipodi.sourceforge.net/DTD/sodipodi-0.dtd"
   xmlns:inkscape="http://www.inkscape.org/namespaces/inkscape"
   width="210mm"
   height="297mm"
   viewBox="0 0 744.09448819 1052.3622047"
   id="svg2"
   version="1.1"
   inkscape:version="0.91 r13725"
   sodipodi:docname="cube.svg">
  <defs
     id="defs4" />
  <sodipodi:namedview
     id="base"
     pagecolor="#ffffff"
     bordercolor="#666666"
     borderopacity="1.0"
     inkscape:pageopacity="0.0"
     inkscape:pageshadow="2"
     inkscape:zoom="0.98"
     inkscape:cx="438.15203"
     inkscape:cy="498.45459"
     inkscape:document-units="px"
     inkscape:current-layer="layer1"
     showgrid="false"
     inkscape:window-width="1280"
     inkscape:window-height="751"
     inkscape:window-x="0"
     inkscape:window-y="1"
     inkscape:window-maximized="1" />
  <metadata
     id="metadata7">
    <rdf:RDF>
      <cc:Work
         rdf:about="">
        <dc:format>image/svg+xml</dc:format>
        <dc:type
           rdf:resource="http://purl.org/dc/dcmitype/StillImage" />
        <dc:title></dc:title>
      </cc:Work>
    </rdf:RDF>
  </metadata>
  <g
     inkscape:label="Livello 1"
     inkscape:groupmode="layer"
     id="layer1">
    <path
       style="fill:#000000"
       d="m 101.72341,692.77561 -13.744389,-6.65661 -0.006,-15.75 c -0.003,-8.6625 0.33189,-15.72639 0.74439,-15.69754 0.4125,0.0288 7.16025,3.29323 14.994989,7.25416 l 14.24498,7.20171 14.75502,-7.24989 c 8.11526,-3.98744 15.43001,-7.25248 16.25501,-7.25566 1.2795,-0.005 1.45616,2.1736 1.20175,14.8197 l -0.29825,14.82546 15.14642,7.24453 c 8.33053,3.98449 14.91923,7.47172 14.64155,7.7494 -0.27768,0.27768 -7.10809,-2.663 -15.17868,-6.53484 l -14.67381,-7.03972 -13.90616,6.96635 c -9.26682,4.64224 -14.99486,6.93518 -17.16949,6.87295 -1.82231,-0.0521 -9.33254,-3.0328 -17.00771,-6.75 z m 17.24438,-7.9226 0,-13.76598 -14.50882,-7.23402 c -7.979849,-3.9787 -14.729849,-7.23401 -14.999999,-7.23401 -0.27015,0 -0.48865,6.4125 -0.48556,14.25 l 0.006,14.25 13.744379,6.65661 c 7.55942,3.66113 14.30689,6.69863 14.99439,6.75 0.94399,0.0705 1.25,-3.27667 1.25,-13.6726 z m 15.62294,6.33329 13.37706,-6.43271 0,-13.99706 0,-13.99706 -13.97765,6.67976 -13.97766,6.67977 -0.0223,13.75 c -0.0123,7.5625 0.25797,13.75 0.60059,13.75 0.34262,0 6.64262,-2.89472 14,-6.4327 z m 46.37706,-6.5673 c 0,-8.37939 -0.40293,-15 -0.91291,-15 -1.61024,0 -28.4131,-13.00732 -27.88698,-13.53344 0.27866,-0.27866 6.85181,2.49005 14.60701,6.15267 l 14.10037,6.65932 14.65352,-7.13927 c 8.05944,-3.92661 15.61775,-7.11567 16.79625,-7.08682 1.17851,0.0288 8.55992,3.2967 16.40314,7.26189 l 14.2604,7.20942 14.65798,-7.26188 c 8.06189,-3.99404 15.25722,-7.26189 15.9896,-7.26189 1.04903,0 1.33162,3.15075 1.33162,14.84705 l 0,14.84705 15.09817,7.22145 c 8.30399,3.9718 14.8441,7.47552 14.53357,7.78604 -0.31053,0.31053 -7.13155,-2.63485 -15.15781,-6.54529 l -14.59322,-7.1099 -13.92702,6.9768 c -7.65987,3.83724 -15.21651,6.9768 -16.79254,6.9768 -1.57603,0 -9.29617,-3.0869 -17.15587,-6.85979 l -14.29037,-6.85979 -14.36793,6.85979 c -7.90236,3.77289 -15.03821,6.85979 -15.85745,6.85979 -1.25317,0 -1.48953,-2.38021 -1.48953,-15 z m 63,0.23401 0,-13.76598 -14.50882,-7.23402 c -7.97986,-3.9787 -15.17986,-7.23401 -16,-7.23401 -1.24932,0 -1.49118,2.23164 -1.49118,13.75909 l 0,13.7591 14.75,7.14641 c 8.1125,3.93053 15.3125,7.18893 16,7.24091 0.94404,0.0714 1.25,-3.27498 1.25,-13.6715 z m -46.50945,6.03315 13.50945,-6.73284 0,-13.75455 0,-13.75455 -5.25,2.34574 c -2.8875,1.29016 -9.1875,4.30977 -14,6.71025 l -8.75,4.3645 0,13.77715 c 0,7.57743 0.22075,13.77714 0.49055,13.77714 0.2698,0 6.5698,-3.02978 14,-6.73284 z m 61.97655,0.30244 13.5329,-6.4304 0,-13.98893 0,-13.98892 -13.99304,6.66932 -13.99305,6.66933 -0.007,13.75 c -0.004,7.5625 0.20324,13.75 0.46014,13.75 0.25691,0 6.55691,-2.89368 14,-6.4304 z m 46.5329,-6.5696 c 0,-8.37939 -0.40294,-15 -0.91291,-15 -1.58556,0 -28.41731,-13.00311 -27.89974,-13.52068 0.27163,-0.27163 6.8146,2.49014 14.53993,6.13728 l 14.04604,6.63116 14.74933,-7.12388 c 8.11213,-3.91813 15.70063,-7.10027 16.86334,-7.07142 1.1627,0.0288 8.53119,3.2967 16.37441,7.26189 l 14.2604,7.20942 14.65798,-7.26188 c 8.06189,-3.99404 15.25722,-7.26189 15.9896,-7.26189 1.04895,0 1.33162,3.14732 1.33162,14.82658 l 0,14.82657 15.06211,7.27798 c 8.28416,4.00289 14.83876,7.50134 14.56577,7.77433 -0.27299,0.27299 -7.08404,-2.68549 -15.13565,-6.5744 l -14.63931,-7.07073 -13.91313,6.96983 c -7.65222,3.83341 -15.15663,6.97484 -16.67646,6.98094 -3.91409,0.0157 -31.25694,-13.12132 -31.24343,-15.0111 0.007,-0.93014 0.28984,-1.09947 0.74541,-0.44571 0.78262,1.12308 27.84796,14.44571 29.34691,14.44571 0.48828,0 0.88778,-6.19469 0.88778,-13.76599 l 0,-13.76598 -14.50882,-7.23402 c -7.97986,-3.9787 -15.17986,-7.23401 -16,-7.23401 -1.25462,0 -1.49118,2.35546 -1.49118,14.84772 l 0,14.84773 -14.04887,6.65227 c -7.72688,3.65876 -14.70188,6.65228 -15.5,6.65228 -1.20368,0 -1.45113,-2.55786 -1.45113,-15 z m 16.49055,6.26716 13.50945,-6.73284 0,-13.78058 0,-13.78058 -3.25,1.37594 c -1.7875,0.75677 -8.0875,3.7904 -14,6.7414 l -10.75,5.36546 0,13.77202 c 0,7.57461 0.22075,13.77202 0.49055,13.77202 0.2698,0 6.5698,-3.02978 14,-6.73284 z m 62.04671,0.30514 13.46274,-6.4277 0,-13.99163 0,-13.99162 -13.99304,6.66932 -13.99305,6.66933 -0.007,13.75 c -0.004,7.5625 0.23481,13.75 0.5303,13.75 0.29549,0 6.59549,-2.89246 14,-6.4277 z m 46.46274,-6.5723 c 0,-8.25 -0.39375,-15 -0.87499,-15 -1.56117,0 -28.42279,-13.03556 -27.91271,-13.54564 0.27195,-0.27194 6.8171,2.49161 14.54478,6.14124 l 14.05033,6.63569 14.73228,-7.11564 c 8.10276,-3.91361 15.68359,-7.09204 16.8463,-7.06319 1.1627,0.0288 8.54103,3.30163 16.39628,7.27284 l 14.28227,7.22038 14.52278,-7.27284 c 7.98753,-4.00006 15.28551,-7.27351 16.21773,-7.27434 1.53043,-10e-4 1.66602,1.4358 1.39688,14.80613 l -0.29806,14.80762 14.29806,6.86228 c 15.75024,7.55923 15.32813,7.32874 14.65468,8.00219 -0.2622,0.2622 -6.88653,-2.65361 -14.72073,-6.47959 l -14.24401,-6.95631 -13.93261,6.97959 c -7.66293,3.83877 -15.1761,6.98391 -16.69593,6.98918 -3.97146,0.0138 -31.26719,-13.07585 -31.24802,-14.98496 0.0101,-1.004 0.2662,-1.14101 0.75,-0.40122 0.74123,1.1334 27.81064,14.37659 29.38612,14.37659 0.46671,0 0.84857,-6.20731 0.84857,-13.79402 l 0,-13.79402 -15.75,-7.76644 -15.75,-7.76645 -0.27468,15.41935 -0.27467,15.41934 -14.22533,6.66462 c -7.82392,3.66554 -14.78782,6.65404 -15.47532,6.64112 -0.9434,-0.0177 -1.25,-3.7027 -1.25,-15.0235 z m 16.49055,6.26716 13.50945,-6.73284 0,-13.78058 0,-13.78058 -3.25,1.37594 c -1.7875,0.75677 -8.0875,3.7904 -14,6.7414 l -10.75,5.36546 0,13.77202 c 0,7.57461 0.22075,13.77202 0.49055,13.77202 0.2698,0 6.5698,-3.02978 14,-6.73284 z m 61.97655,0.30244 13.5329,-6.4304 0,-13.98588 0,-13.98588 -14,6.64861 -14,6.64861 0,13.76767 c 0,7.57222 0.2102,13.76767 0.4671,13.76767 0.25691,0 6.55691,-2.89368 14,-6.4304 z m 46.5329,-7.04099 0,-15.47139 14.65067,-7.02861 c 15.80584,-7.5828 15.34933,-7.39691 15.34933,-6.25008 0,0.42819 -6.3,3.90285 -14,7.72147 l -14,6.94294 0,13.77853 c 0,7.57819 0.23143,13.77853 0.51428,13.77853 0.28285,0 6.35143,-2.925 13.48572,-6.5 7.13429,-3.575 13.20287,-6.5 13.48572,-6.5 0.28285,0 0.51428,0.47667 0.51428,1.05926 0,1.14166 -26.24599,13.94074 -28.58709,13.94074 -1.15633,0 -1.41291,-2.80953 -1.41291,-15.47139 z M 540.58072,663.4216 c -7.63789,-3.77399 -13.66936,-7.07951 -13.40327,-7.3456 0.77416,-0.77416 27.79034,12.35144 27.79034,13.50172 0,0.5727 -0.1125,0.96577 -0.25,0.87348 -0.1375,-0.0923 -6.49918,-3.25561 -14.13707,-7.0296 z m -452.612919,-25.59662 0,-15.79402 15.629869,-7.70598 c 8.59644,-4.23829 15.00893,-7.70098 14.25,-7.69488 -0.75893,0.006 -7.79031,-3.03139 -15.62529,-6.75 l -14.245409,-6.7611 -0.005,-15.75 c -0.003,-8.6625 0.33291,-15.72639 0.74541,-15.69754 0.4125,0.0289 7.15622,3.29135 14.986039,7.25 l 14.23604,7.19754 14.76396,-7.22648 c 8.12018,-3.97457 15.43896,-7.23774 16.26396,-7.2515 1.28002,-0.0213 1.45632,2.14344 1.20217,14.76101 l -0.29784,14.78603 14.29784,6.91955 c 16.13765,7.80996 15.29301,7.34955 14.65444,7.98811 -0.26219,0.2622 -6.88634,-2.65352 -14.72031,-6.47939 l -14.24359,-6.95611 -15.19636,7.64296 -15.19635,7.64295 15.30884,7.33916 15.30883,7.33915 14.81231,-7.50272 c 8.14676,-4.1265 15.09528,-7.50272 15.44116,-7.50272 0.34587,0 0.62886,7.09469 0.62886,15.76599 l 0,15.76598 -14.50882,7.23402 c -7.97985,3.9787 -15.40088,7.23401 -16.49118,7.23401 -1.09029,0 -8.51132,-3.25531 -16.49117,-7.23401 l -14.50883,-7.23402 -14.50882,7.23402 c -7.979849,3.9787 -14.954849,7.23401 -15.499999,7.23401 -0.61306,0 -0.99118,-6.02507 -0.99118,-15.79402 z m 61.999989,0.48216 0,-14.31187 -15.18582,-7.20231 c -8.3522,-3.96127 -15.56622,-6.82192 -16.03114,-6.357 -0.46492,0.46492 -0.7188,6.6588 -0.56417,13.76418 l 0.28113,12.91886 15,7.70639 c 8.25,4.23852 15.3375,7.72602 15.75,7.75 0.4125,0.024 0.75,-6.39673 0.75,-14.26825 z m -33,-14.2622 0,-13.56072 -2.25,0.7005 c -1.2375,0.38527 -7.5375,3.34406 -14,6.57509 l -11.749999,5.87461 0,13.99896 0,13.99897 13.999999,-7.01335 14,-7.01335 0,-13.56071 z m 49.01333,20.56738 13.98667,-7.00667 0,-14.02053 0,-14.02053 -14.25,7.27721 -14.25,7.2772 -0.27822,13.75 c -0.15302,7.5625 -0.0345,13.75 0.26333,13.75 0.29785,0 6.83555,-3.153 14.52822,-7.00668 z m -47.01333,-52.75931 0,-13.76598 -14.50882,-7.23402 c -7.979849,-3.9787 -14.729849,-7.23401 -14.999999,-7.23401 -0.27015,0 -0.48865,6.4125 -0.48556,14.25 l 0.006,14.25 13.744379,6.65661 c 7.55942,3.66113 14.30689,6.69863 14.99439,6.75 0.94399,0.0705 1.25,-3.27667 1.25,-13.6726 z m 15.6964,6.34036 13.19639,-6.42411 0.30361,-14.07675 c 0.16698,-7.74221 0.0786,-14.047 -0.1964,-14.01065 -0.275,0.0364 -6.575,3.10487 -14,6.81892 l -13.5,6.75282 -0.27822,13.6827 c -0.15302,7.52549 0.072,13.68236 0.5,13.68195 0.42802,-4.2e-4 6.7166,-2.89161 13.97462,-6.42488 z m 61.5536,48.13425 c -7.8375,-3.94692 -14.25,-7.52383 -14.25,-7.94868 0,-0.42485 6.69815,2.58221 14.88478,6.68235 8.18663,4.10015 15.16163,7.17797 15.5,6.8396 0.33837,-0.33837 0.61522,-6.58585 0.61522,-13.88328 l 0,-13.26807 -15.08904,-7.64289 c -8.29898,-4.20359 -14.87194,-7.86 -14.60659,-8.12535 0.26535,-0.26535 6.81776,2.69125 14.56091,6.57021 l 14.07847,7.05266 16.13281,-7.99258 c 8.87305,-4.39593 15.47723,-7.99259 14.67595,-7.99259 -0.80127,0 -7.88674,-3.08653 -15.74548,-6.85895 l -14.28861,-6.85894 -15.34848,7.35894 c -8.44166,4.04742 -15.57831,7.35895 -15.85921,7.35895 -0.2809,0 -0.51073,-6.975 -0.51073,-15.5 0,-8.525 -0.3375,-15.41892 -0.75,-15.31982 -1.15898,0.27844 -28.63671,-13.1268 -28.06954,-13.69397 0.27542,-0.27542 6.86981,2.50606 14.65418,6.18107 l 14.15341,6.68185 14.57073,-7.17457 c 8.01391,-3.94601 15.3966,-7.17456 16.40598,-7.17456 1.00939,0 8.41314,3.2625 16.45279,7.25 l 14.61754,7.25 14.73246,-7.24572 c 8.10285,-3.98515 15.29495,-7.24765 15.98245,-7.25 0.94389,-0.003 1.25,3.62018 1.25,14.79611 l 0,14.80039 14.25,6.90846 c 16.22845,7.86762 15.24629,7.3278 14.56742,8.00667 -0.28375,0.28376 -6.89736,-2.63724 -14.69691,-6.49111 l -14.18099,-7.00703 -15.21976,7.6563 -15.21976,7.65631 15.19052,7.3417 15.19051,7.34171 14.97501,-7.5069 c 8.23625,-4.12879 15.23802,-7.50689 15.55948,-7.50689 0.32146,0 0.58448,7.09469 0.58448,15.76599 l 0,15.76598 -14.50882,7.23402 c -7.97986,3.9787 -15.51736,7.2104 -16.75,7.18155 -1.23265,-0.0288 -8.68164,-3.30837 -16.55332,-7.28781 l -14.31214,-7.23534 -14.18786,7.2488 c -7.80332,3.98684 -15.31286,7.24044 -16.68786,7.23023 -1.375,-0.0102 -8.9125,-3.24787 -16.75,-7.1948 z m 78.75,-7.97039 0,-14.26178 -15.25,-7.24852 c -8.3875,-3.98668 -15.5875,-7.24389 -16,-7.23822 -0.4125,0.006 -0.75,6.20461 -0.75,13.77544 l 0,13.76514 15.25,7.67741 c 8.3875,4.22257 15.5875,7.70326 16,7.73485 0.4125,0.0316 0.75,-6.36035 0.75,-14.20432 z m -33,-14.24491 c 0,-7.42132 -0.16875,-13.49332 -0.37499,-13.49332 -0.20625,0 -6.50625,2.90642 -14,6.45872 l -13.62501,6.45872 0,14.04795 0,14.04796 14,-7.01335 14,-7.01335 0,-13.49333 z m 49.01333,20.5 13.98667,-7.00667 0,-14.02053 0,-14.02053 -14.25,7.27721 -14.25,7.2772 -0.27822,13.75 c -0.15302,7.5625 -0.0345,13.75 0.26333,13.75 0.29785,0 6.83555,-3.153 14.52822,-7.00668 z m -47.01333,-52.75931 0,-13.76598 -14.50882,-7.23402 c -7.97986,-3.9787 -15.17986,-7.23401 -16,-7.23401 -1.24932,0 -1.49118,2.23164 -1.49118,13.75909 l 0,13.7591 14.75,7.14641 c 8.1125,3.93053 15.3125,7.18893 16,7.24091 0.94404,0.0714 1.25,-3.27498 1.25,-13.6715 z m -46.61222,6.15743 13.61222,-6.60856 0,-13.86619 0,-13.8662 -7.25,3.33196 c -3.9875,1.83258 -10.2875,4.8428 -14,6.68939 l -6.75,3.35742 0,13.78537 c 0,7.58195 0.1745,13.78537 0.38778,13.78537 0.21328,0 6.51328,-2.97385 14,-6.60856 z m 62.23516,0.17586 13.37706,-6.43271 0,-13.99706 0,-13.99706 -13.97765,6.67976 -13.97766,6.67977 -0.0223,13.75 c -0.0123,7.5625 0.25797,13.75 0.60059,13.75 0.34262,0 6.64262,-2.89472 14,-6.4327 z m 61.62706,48.14132 c -7.8375,-3.94692 -14.25,-7.50163 -14.25,-7.89935 0,-0.39771 6.6375,2.58015 14.75,6.61748 8.1125,4.03732 15.0875,7.14138 15.5,6.8979 0.4125,-0.24347 0.75,-6.46281 0.75,-13.82075 l 0,-13.37806 -15.75,-8.02172 c -8.6625,-4.41194 -15.1815,-8.04026 -14.48667,-8.06292 0.69483,-0.0227 7.55247,3.10937 15.23919,6.96006 l 13.97587,7.00127 15.36066,-7.66142 15.36066,-7.66141 15.65015,7.40937 c 8.60758,4.07516 15.65014,7.72163 15.65014,8.10326 0,0.74642 -10.04314,-3.67001 -21.72504,-9.5535 -3.97377,-2.00136 -7.68627,-3.63883 -8.25,-3.63883 -0.65041,0 -1.02496,5.04069 -1.02496,13.79402 l 0,13.79402 15.75,7.7674 15.75,7.7674 0.5,-15.31142 0.5,-15.31142 14,-7.14325 c 7.7,-3.92879 14.5625,-7.19129 15.25,-7.25 0.95166,-0.0813 1.25,3.65618 1.25,15.65924 l 0,15.76598 -14.50882,7.23402 c -7.97986,3.9787 -15.51736,7.2104 -16.75,7.18155 -1.23265,-0.0288 -8.68164,-3.30837 -16.55332,-7.28781 l -14.31214,-7.23534 -14.18786,7.2488 c -7.80332,3.98684 -15.31286,7.24044 -16.68786,7.23023 -1.375,-0.0102 -8.9125,-3.24787 -16.75,-7.1948 z m 45.75,-22.28268 0,-13.56072 -2.25,0.7005 c -1.2375,0.38527 -7.5375,3.34406 -14,6.57509 l -11.75,5.87461 0,13.99896 0,13.99897 14,-7.01335 14,-7.01335 0,-13.56071 z m 49.01333,20.56738 13.98667,-7.00667 0,-14.02053 0,-14.02053 -14.25,7.27721 -14.25,7.2772 -0.27822,13.75 c -0.15302,7.5625 -0.0345,13.75 0.26333,13.75 0.29785,0 6.83555,-3.153 14.52822,-7.00668 z m 30.23667,1.7153 c -7.8375,-3.94692 -14.25,-7.50102 -14.25,-7.89799 0,-0.39697 6.35965,2.43349 14.13255,6.28993 7.7729,3.85643 14.7479,6.77556 15.5,6.48695 1.05468,-0.40472 1.36745,-3.35556 1.36745,-12.90114 0,-10.53082 -0.26096,-12.60717 -1.75,-13.92398 -0.9625,-0.85118 -8.05,-4.72235 -15.75,-8.60261 -7.7,-3.88026 -13.4315,-7.07858 -12.73667,-7.1074 0.69483,-0.0288 7.55247,3.09819 15.23919,6.94888 l 13.97587,7.00127 15.3875,-7.6748 15.3875,-7.67481 15.37331,7.33 c 16.78421,8.00272 16.41859,7.80512 15.7251,8.49862 -0.26485,0.26484 -6.90143,-2.66016 -14.74797,-6.5 -7.84655,-3.83985 -14.67985,-6.98154 -15.18514,-6.98154 -0.51376,0 -0.91869,6.06713 -0.91869,13.76496 l 0,13.76496 15.50827,7.73504 c 8.52955,4.25427 15.71783,7.73504 15.97396,7.73504 0.25612,0 0.5899,-6.8625 0.74172,-15.25 l 0.27605,-15.25 14.5,-7.203 c 7.975,-3.96165 14.8375,-7.22415 15.25,-7.25 0.4125,-0.0259 0.75,7.04769 0.75,15.71899 l 0,15.76598 -14.50882,7.23402 c -7.97986,3.9787 -15.51736,7.2104 -16.75,7.18155 -1.23265,-0.0288 -8.68164,-3.30837 -16.55332,-7.28781 l -14.31214,-7.23534 -14.18786,7.2488 c -7.80332,3.98684 -15.31286,7.24044 -16.68786,7.23023 -1.375,-0.0102 -8.9125,-3.24787 -16.75,-7.1948 z m 45.75,-22.66379 0,-13.94181 -14,6.93175 -14,6.93175 0,14.02342 0,14.02341 14,-7.01335 14,-7.01335 0,-13.94182 z m 48.49055,21.22233 13.50945,-6.73284 0,-13.76716 c 0,-7.57194 -0.3375,-13.7483 -0.75,-13.72525 -0.4125,0.0231 -6.6,3.06055 -13.75,6.75 l -13,6.70809 -0.27822,13.75 c -0.15302,7.5625 -0.0448,13.75 0.24055,13.75 0.28532,0 6.59802,-3.02978 14.02822,-6.73284 z m 31.00945,1.55191 c -7.7,-3.81287 -14.15872,-7.38313 -14.35271,-7.93391 -0.19399,-0.55078 6.10601,2.22569 14,6.16993 15.13153,7.56049 15.42744,7.7272 14.76938,8.32069 -0.22917,0.20669 -6.71667,-2.74384 -14.41667,-6.55671 z m 0.14363,-29.98397 c -7.62101,-3.82563 -13.63133,-7.18073 -13.35627,-7.4558 0.41155,-0.41154 26.27224,11.97554 27.62931,13.23424 0.22916,0.21255 0.22916,0.56439 0,0.78185 -0.22917,0.21746 -6.65204,-2.73467 -14.27304,-6.56029 z m -265.64363,-24.55649 0,-15.93537 14.56476,-7.17162 c 8.01062,-3.94439 15.54812,-7.14801 16.75,-7.11916 1.20188,0.0289 8.59548,3.29323 16.43023,7.25416 l 14.24498,7.20171 14.75502,-7.24989 c 8.11525,-3.98744 15.31751,-7.25181 16.00501,-7.25416 0.94386,-0.003 1.25,3.61867 1.25,14.78856 l 0,14.79284 14.25,6.92078 c 16.28621,7.9097 15.24155,7.33533 14.56742,8.00945 -0.28375,0.28376 -6.89736,-2.63724 -14.69691,-6.49111 l -14.18099,-7.00703 -14.9272,7.47606 c -9.24437,4.6299 -15.60964,7.25549 -16.71976,6.89669 -4.16505,-1.34619 -30.29256,-13.90246 -30.29256,-14.55789 0,-0.68964 12.87903,5.02373 23.71676,10.52117 2.86921,1.45541 5.68171,2.6462 6.25,2.6462 0.66095,0 1.03324,-4.96006 1.03324,-13.76599 l 0,-13.76598 -14.50882,-7.23402 c -7.97986,-3.9787 -15.17986,-7.23401 -16,-7.23401 -1.25462,0 -1.49118,2.35546 -1.49118,14.84772 l 0,14.84773 -14.25,6.76407 c -7.8375,3.72024 -14.8125,6.98691 -15.5,7.25927 -0.96842,0.38364 -1.25,-3.09445 -1.25,-15.44018 z m 16.38778,6.11283 13.61222,-6.60856 0,-13.87883 0,-13.87883 -5.25,2.34574 c -2.8875,1.29016 -9.1875,4.30977 -14,6.71025 l -8.75,4.3645 0,13.77715 c 0,7.57743 0.1745,13.77714 0.38778,13.77714 0.21328,0 6.51328,-2.97385 14,-6.60856 z m 62.23516,0.17586 13.37706,-6.43271 0,-13.99706 0,-13.99706 -13.97765,6.67976 -13.97766,6.67977 -0.0223,13.75 c -0.0123,7.5625 0.25797,13.75 0.60059,13.75 0.34262,0 6.64262,-2.89472 14,-6.4327 z m 46.32963,8.6827 c -0.0261,-0.4125 -0.006,-7.39426 0.0451,-15.51503 0.0509,-8.12077 -0.26527,-14.66819 -0.70257,-14.54981 -1.15603,0.31292 -28.70094,-13.11265 -28.11175,-13.70184 0.27298,-0.27298 6.71269,2.45749 14.31047,6.06771 15.91946,7.56442 12.68112,7.74032 31.7408,-1.72404 6.45405,-3.20484 12.59655,-5.82699 13.65001,-5.82699 1.05346,0 8.49327,3.2625 16.53292,7.25 l 14.61754,7.25 14.73246,-7.24572 c 8.10285,-3.98515 15.40745,-7.24832 16.23245,-7.2515 1.27921,-0.005 1.45621,2.16625 1.20247,14.75068 l -0.29752,14.75646 14.29752,6.98988 c 16.74174,8.18482 15.25933,7.37173 14.61495,8.01611 -0.28375,0.28376 -6.89736,-2.63724 -14.69691,-6.49111 l -14.18099,-7.00703 -14.9272,7.47606 c -9.23081,4.62311 -15.61127,7.25564 -16.71976,6.89845 -0.98591,-0.31768 -8.20506,-3.54821 -16.04256,-7.17896 -9.44961,-4.37755 -14.24484,-7.12551 -14.23469,-8.15733 0.0102,-1.0405 0.25871,-1.1754 0.75,-0.40721 0.73386,1.14748 27.76579,14.35122 29.38117,14.35122 0.46943,0 0.85352,-6.2175 0.85352,-13.81667 l 0,-13.81667 -15.75,-7.68914 -15.75,-7.68913 -0.27468,15.36554 -0.27468,15.36554 -15.00051,7.14027 c -15.81303,7.52703 -15.9229,7.57091 -15.99756,6.39026 z m 16.47886,-8.91636 13.56857,-6.66637 0,-13.82102 0,-13.82103 -5.25,2.34574 c -2.8875,1.29016 -9.1875,4.30977 -14,6.71025 l -8.75,4.3645 0,13.77715 c 0,7.57743 0.19414,13.77714 0.43143,13.77714 0.23729,0 6.53729,-2.99986 14,-6.66636 z m 62.19151,0.23366 13.37706,-6.43271 0,-13.99706 0,-13.99706 -13.97765,6.67976 -13.97766,6.67977 -0.0223,13.75 c -0.0123,7.5625 0.25797,13.75 0.60059,13.75 0.34262,0 6.64262,-2.89472 14,-6.4327 z m 46.37706,-6.45056 0,-15.88326 14.60726,-7.11674 c 15.72259,-7.66013 15.39274,-7.5257 15.39274,-6.27335 0,0.46386 -6.3,3.92529 -14,7.69207 l -14,6.84868 0,13.80793 c 0,7.59436 0.2325,13.80793 0.51666,13.80793 0.28416,0 5.51998,-2.50926 11.63515,-5.57614 13.58049,-6.81087 15.84819,-7.71618 15.84819,-6.32695 0,0.85038 -27.82658,14.90309 -29.51047,14.90309 -0.26924,0 -0.48953,-7.14747 -0.48953,-15.88326 z M 290.57307,570.43996 c -7.64209,-3.77567 -13.67666,-7.08291 -13.41016,-7.34941 0.76331,-0.76331 27.80488,12.37855 27.80488,13.51282 0,0.5586 -0.1125,0.94494 -0.25,0.85854 -0.1375,-0.0864 -6.50262,-3.24628 -14.14472,-7.02195 z m 249.99743,0.0166 c -7.64351,-3.78199 -13.67879,-7.09485 -13.41174,-7.3619 0.74895,-0.74891 27.80903,12.42846 27.80903,13.54213 0,0.54021 -0.1125,0.91785 -0.25,0.83919 -0.1375,-0.0787 -6.50378,-3.23738 -14.14729,-7.01938 z m -452.602699,-25.63158 0,-15.79402 15.629869,-7.70598 c 8.59644,-4.23829 15.00893,-7.6905 14.25,-7.67159 -0.75893,0.0189 -7.76622,-3.01858 -15.57176,-6.75 l -14.191879,-6.78439 -0.0581,-15.75 c -0.032,-8.6625 0.27939,-15.71732 0.69188,-15.67738 0.4125,0.0399 7.24004,3.30243 15.172319,7.25 l 14.42231,7.17738 14.07769,-7.21099 c 7.74272,-3.96605 14.97768,-7.22922 16.07768,-7.2515 1.92491,-0.039 1.98881,0.51554 1.70192,14.76859 l -0.29808,14.80909 15.20164,7.20552 c 8.3609,3.96303 14.95982,7.44733 14.66427,7.74288 -0.29555,0.29555 -7.13651,-2.61332 -15.20212,-6.46415 l -14.66477,-7.00151 -14.88836,7.20104 c -8.18859,3.96057 -14.91674,7.46633 -14.95142,7.79058 -0.0347,0.32426 6.65671,3.82497 14.86979,7.77936 l 14.93287,7.1898 15.56713,-7.76439 15.56713,-7.7644 0,-15.26496 c 0,-8.39573 -0.38185,-15.26496 -0.84856,-15.26496 -1.53949,0 -28.36383,-13.12094 -27.85815,-13.62662 0.27215,-0.27215 6.76892,2.49038 14.43726,6.13897 l 13.94243,6.63378 14.81464,-7.07306 c 8.14806,-3.89019 15.75914,-7.04421 16.91351,-7.00894 1.15438,0.0353 8.56571,3.3014 16.46962,7.25806 l 14.37075,7.19394 14.12925,-7.21906 c 7.77109,-3.97048 14.91675,-7.23661 15.87925,-7.25806 1.58984,-0.0354 1.75,1.31984 1.75,14.80898 l 0,14.84799 15.12104,7.19764 c 8.31657,3.9587 14.89386,7.42481 14.61619,7.70248 -0.27766,0.27767 -7.1182,-2.65262 -15.20119,-6.51174 l -14.69635,-7.01659 -15.16985,7.61 -15.16984,7.61 15.06948,7.44203 15.06948,7.44202 15.68052,-7.82095 15.68052,-7.82095 -0.0297,-15.01496 -0.0297,-15.01496 -13.99094,-6.42235 c -7.69502,-3.53229 -14.49889,-7.0344 -15.11973,-7.78246 -0.94543,-1.13918 9.15931,3.33021 25.22066,11.15526 l 3.55068,1.72988 14.85045,-7.09017 c 8.16775,-3.89959 15.79495,-7.0613 16.94932,-7.02603 1.15438,0.0353 8.56571,3.3014 16.46962,7.25806 l 14.37075,7.19394 14.12925,-7.21906 c 7.77109,-3.97048 14.91675,-7.23661 15.87925,-7.25806 1.58984,-0.0354 1.75,1.31984 1.75,14.80898 l 0,14.84799 15.02519,7.15201 c 8.26385,3.9336 15.23885,7.15201 15.5,7.15201 0.26114,0 0.46213,-6.4125 0.44664,-14.25 l -0.0282,-14.25 -14.03421,-6.4727 c -7.71882,-3.55999 -14.52156,-7.05992 -15.11721,-7.77763 -0.59565,-0.71771 5.16993,1.67498 12.81238,5.31709 7.64246,3.64212 14.39936,6.83024 15.01534,7.08472 0.61597,0.25448 7.77148,-2.713 15.90113,-6.59439 8.12965,-3.8814 15.58402,-7.05709 16.56528,-7.05709 0.98126,0 8.36658,3.24118 16.41183,7.20262 l 14.62772,7.20262 14.44586,-7.20262 c 7.94526,-3.96144 15.30491,-7.20262 16.35482,-7.20262 1.04991,0 8.60629,3.17836 16.79195,7.06303 l 14.88303,7.06303 14.83652,-7.06303 c 15.97267,-7.6039 15.56193,-7.43803 15.56193,-6.2845 0,0.42819 -6.3,3.90285 -14,7.72147 l -14,6.94294 0,13.77853 c 0,7.57819 0.23143,13.77853 0.51428,13.77853 0.28285,0 6.40567,-2.95218 13.60626,-6.5604 7.20059,-3.60823 13.35167,-6.30073 13.66906,-5.98334 1.01394,1.01394 -0.99548,2.1859 -15.2896,8.91736 l -14,6.59296 -0.27371,15.79452 -0.2737,15.79451 -14.48512,7.2222 c -7.96681,3.9722 -15.37718,7.22219 -16.46747,7.22219 -1.09029,0 -8.51132,-3.25531 -16.49118,-7.23401 l -14.50882,-7.23402 -14.50882,7.23402 c -7.97986,3.9787 -15.35659,7.23401 -16.39274,7.23401 -2.28752,0 -31.09844,-13.9119 -31.09844,-15.01647 0,-0.43065 6.63691,2.50487 14.74869,6.52336 10.1838,5.04495 14.97649,6.94837 15.48469,6.14973 0.4048,-0.63614 0.74289,-6.59938 0.75131,-13.25163 0.013,-10.27522 -0.24799,-12.32786 -1.73469,-13.6426 -0.9625,-0.85118 -8.05,-4.72235 -15.75,-8.60261 -7.7,-3.88026 -13.4315,-7.07858 -12.73667,-7.1074 0.69483,-0.0288 7.54467,3.09428 15.22187,6.94021 l 13.95855,6.99258 16.13281,-7.99258 c 8.87305,-4.39593 15.52321,-7.97711 14.77813,-7.9582 -2.77792,0.0705 -29.73861,-13.53996 -29.78126,-15.03439 -0.025,-0.87476 0.26343,-1.08317 0.69188,-0.5 0.84989,1.1568 27.76095,14.5 29.24414,14.5 0.60619,0 0.99055,-5.35241 0.99055,-13.79402 l 0,-13.79402 -15.75,-7.76644 -15.75,-7.76645 -0.27447,15.37799 -0.27446,15.37798 -14.60377,6.88563 c -8.03207,3.78709 -15.37091,6.82783 -16.30854,6.7572 -0.93763,-0.0706 -8.32678,-3.29001 -16.42034,-7.15418 l -14.71556,-7.02576 -14.88836,7.20104 c -8.1886,3.96057 -14.91674,7.43887 -14.95143,7.72956 -0.0347,0.29069 6.34943,3.66337 14.18693,7.49484 16.68777,8.15804 15.21175,7.34821 14.56742,7.99254 -0.28375,0.28376 -6.90545,-2.64124 -14.71489,-6.5 -7.80943,-3.85875 -14.62727,-7.01591 -15.15075,-7.01591 -0.55628,0 -0.95178,5.71991 -0.95178,13.76496 l 0,13.76496 15.50827,7.73504 c 8.52955,4.25427 15.72955,7.73504 16,7.73504 0.27045,0 0.49173,-6.747 0.49173,-14.99332 l 0,-14.99333 14.25,-7.24831 c 7.8375,-3.98657 14.8125,-7.39757 15.5,-7.58 0.96135,-0.25509 1.25,3.32594 1.25,15.50762 l 0,15.83931 -14.50882,7.23402 c -7.97986,3.9787 -15.40089,7.23401 -16.49118,7.23401 -1.09029,0 -8.51132,-3.25531 -16.49118,-7.23401 l -14.50882,-7.23402 -14.50882,7.23402 c -7.97986,3.9787 -15.34997,7.23401 -16.37802,7.23401 -2.25468,0 -31.11316,-13.83114 -31.11316,-14.91175 0,-0.418 6.6375,2.48331 14.75,6.44735 8.1125,3.96404 15.0875,7.01362 15.5,6.77685 0.4125,-0.23676 0.75,-6.44955 0.75,-13.80619 l 0,-13.37572 -15.08904,-7.64289 c -8.29898,-4.20359 -14.87194,-7.86 -14.6066,-8.12535 0.26535,-0.26535 6.81777,2.69125 14.56092,6.57021 l 14.07847,7.05266 16.13281,-7.99258 c 8.87305,-4.39593 15.43378,-7.99259 14.57939,-7.99259 -1.59911,0 -27.22963,-12.1947 -29.33238,-13.95601 -0.66086,-0.55355 -1.31824,-0.59265 -1.5,-0.0892 -0.17796,0.49289 -7.07357,4.07169 -15.32357,7.95287 l -15,7.05671 -0.27371,15.79563 -0.2737,15.79563 -14.48512,7.2222 c -7.96681,3.9722 -15.49365,7.19858 -16.72629,7.16973 -1.23265,-0.0289 -8.68164,-3.30837 -16.55332,-7.28781 l -14.31214,-7.23534 -14.18786,7.2488 c -7.80332,3.98684 -15.13917,7.26635 -16.30187,7.2878 -2.48639,0.0459 -31.38599,-13.70863 -31.38599,-14.93788 0,-0.46123 6.6375,2.4386 14.75,6.44408 8.1125,4.00547 15.0875,7.0874 15.5,6.84872 0.4125,-0.23868 0.75,-6.45303 0.75,-13.80967 l 0,-13.37572 -15.08904,-7.64289 c -8.29898,-4.20359 -14.87194,-7.86 -14.60659,-8.12535 0.26535,-0.26535 6.81776,2.69125 14.56091,6.57021 l 14.07847,7.05266 16.13281,-7.99258 c 8.87305,-4.39593 15.43378,-7.99259 14.57939,-7.99259 -1.59911,0 -27.22963,-12.1947 -29.33238,-13.95601 -0.6927,-0.58022 -1.30948,-0.607 -1.5,-0.0651 -0.17796,0.50614 -7.07357,4.08784 -15.32357,7.95933 l -15,7.03907 -0.2737,15.78918 -0.27371,15.78917 -14.48512,7.2222 c -7.96681,3.97217 -15.37717,7.22216 -16.46747,7.22216 -1.09029,0 -8.51132,-3.25531 -16.49117,-7.23401 l -14.50883,-7.23402 -14.50882,7.23402 c -7.979849,3.9787 -14.954849,7.23401 -15.499999,7.23401 -0.61306,0 -0.99117,-6.02507 -0.99117,-15.79402 z m 61.989099,0.54402 -0.0109,-14.25 -15.17738,-7.26173 c -8.34755,-3.99395 -15.55666,-6.88244 -16.02024,-6.41886 -0.46357,0.46357 -0.71635,6.65635 -0.56173,13.76173 l 0.28114,12.91886 15,7.70639 c 8.25,4.23852 15.3375,7.72602 15.75,7.75 0.4125,0.024 0.7451,-6.36889 0.73911,-14.20639 z m 124.98757,0 -0.0233,-14.25 -15.22668,-7.26748 c -8.37467,-3.99711 -15.56418,-7.25961 -15.97668,-7.25 -0.4125,0.01 -0.75,6.2118 -0.75,13.78263 l 0,13.76514 15.25,7.67741 c 8.3875,4.22257 15.5875,7.70326 16,7.73485 0.4125,0.0316 0.73951,-6.35505 0.72668,-14.19255 z m 250.24727,-0.97283 0.27605,-15.22283 15.23165,-7.52717 15.23165,-7.52717 0.0183,-15.25 c 0.0101,-8.3875 -0.36574,-15.25 -0.83517,-15.25 -0.46944,0 -7.10694,-3.02575 -14.75,-6.72389 -7.64307,-3.69815 -14.23398,-6.88565 -14.64648,-7.08334 -0.4125,-0.19769 -0.75,6.1402 -0.75,14.0842 l 0,14.44363 14.5,6.86507 c 7.975,3.77578 14.5,7.18805 14.5,7.5828 0,0.76705 -9.91734,-3.58279 -21.71239,-9.52327 l -7.2124,-3.63247 -14.97453,7.24364 c -8.236,3.98399 -15.00292,7.47582 -15.03761,7.75962 -0.0347,0.28379 6.5133,3.79492 14.55108,7.80251 8.03778,4.00759 14.38575,7.51493 14.10659,7.79409 -0.27915,0.27916 -6.84952,-2.66947 -14.60082,-6.55252 -7.75124,-3.88304 -14.54921,-7.06007 -15.10654,-7.06007 -0.63536,0 -1.01333,5.13435 -1.01333,13.76515 l 0,13.76514 15.25,7.67741 c 8.3875,4.22257 15.57578,7.70326 15.97395,7.73485 0.39818,0.0316 0.84818,-6.79282 1,-15.16538 z M 116.92728,531.369 c 0.0223,-7.5625 -0.13399,-13.75 -0.34727,-13.75 -0.21328,0 -6.51328,2.97385 -14,6.60856 l -13.612219,6.60856 0,13.83917 0,13.83917 13.959489,-6.69773 13.95949,-6.69773 0.0405,-13.75 z m 49.05384,20.24332 13.98667,-7.00667 0,-14.02053 0,-14.02053 -14.25,7.27721 -14.25,7.2772 -0.27822,13.75 c -0.15302,7.5625 -0.0345,13.75 0.26333,13.75 0.29785,0 6.83555,-3.153 14.52822,-7.00668 z m 75.98667,-20.5 c 0,-7.42132 -0.18581,-13.49332 -0.41291,-13.49332 -0.22711,0 -6.52711,2.89833 -14,6.44074 l -13.58709,6.44074 0,14.06594 0,14.06593 14,-7.01335 14,-7.01335 0,-13.49333 z m 49.01333,20.5 13.98667,-7.00667 0,-14.02053 0,-14.02053 -14.25,7.27721 -14.25,7.2772 -0.27822,13.75 c -0.15302,7.5625 -0.0345,13.75 0.26333,13.75 0.29785,0 6.83555,-3.153 14.52822,-7.00668 z m 74.73667,-6.22387 c 0.88716,-0.7199 1.25,-4.8975 1.25,-14.39189 0,-7.35766 -0.22075,-13.37756 -0.49055,-13.37756 -0.2698,0 -6.5698,3.02978 -14,6.73284 l -13.50945,6.73284 0,13.69569 0,13.6957 12.75,-6.03664 c 7.0125,-3.32016 13.3125,-6.4931 14,-7.05098 z m 50.26333,6.22387 13.98667,-7.00667 0,-13.49333 c 0,-10.15034 -0.30969,-13.48294 -1.25,-13.45141 -0.6875,0.0231 -7.1,3.06055 -14.25,6.75 l -13,6.70809 -0.27822,13.75 c -0.15302,7.5625 -0.0345,13.75 0.26333,13.75 0.29785,0 6.83555,-3.153 14.52822,-7.00668 z m 75.98667,-20.5 c 0,-7.42132 -0.16202,-13.49332 -0.36005,-13.49332 -0.19803,0 -6.49803,2.9516 -14,6.55912 l -13.63995,6.55912 0,13.94756 0,13.94755 14,-7.01335 14,-7.01335 0,-13.49333 z m 48.49055,20.77384 13.50945,-6.73284 0,-13.76716 c 0,-7.57194 -0.3375,-13.7483 -0.75,-13.72525 -0.4125,0.0231 -6.6,3.06055 -13.75,6.75 l -13,6.70809 -0.27822,13.75 c -0.15302,7.5625 -0.0448,13.75 0.24055,13.75 0.28532,0 6.59802,-3.02978 14.02822,-6.73284 z m -421.49055,-53.03315 0,-13.76598 -14.50882,-7.23402 c -7.979849,-3.9787 -14.729849,-7.23401 -14.999999,-7.23401 -0.27015,0 -0.49118,6.29685 -0.49118,13.993 l 0,13.99301 13.749999,6.95461 c 7.5625,3.82504 14.3125,6.97818 15,7.007 0.942,0.0395 1.25,-3.33955 1.25,-13.71361 z m 125,-0.0645 0,-13.83044 -12.75,-6.29621 c -7.0125,-3.46291 -14.2125,-6.92024 -16,-7.68297 l -3.25,-1.38677 0,13.58485 c 0,9.63584 0.36631,13.92745 1.26011,14.76342 1.65471,1.54762 27.87242,14.54615 29.48989,14.62085 0.94253,0.0435 1.25,-3.34425 1.25,-13.77273 z m 125,0 0,-13.83044 -12.75,-6.29621 c -7.0125,-3.46291 -14.2125,-6.92024 -16,-7.68297 l -3.25,-1.38677 0,13.79266 c 0,12.00963 0.22623,13.94861 1.75,14.99904 2.90633,2.00351 27.65709,14.0953 29,14.16772 0.943,0.0509 1.25,-3.32938 1.25,-13.76303 z m -234.58708,6.38975 13.58708,-6.44074 0,-13.97979 0,-13.97979 -14,6.62163 -14,6.62162 0,13.79891 c 0,7.58939 0.18581,13.7989 0.41292,13.7989 0.2271,0 6.5271,-2.89833 14,-6.44074 z m 63.07763,-0.2921 13.50945,-6.73284 0,-13.76716 c 0,-7.57194 -0.22075,-13.76716 -0.49055,-13.76716 -0.2698,0 -6.5698,3.02978 -14,6.73284 l -13.50945,6.73284 0,13.76716 c 0,7.57194 0.22075,13.76716 0.49055,13.76716 0.2698,0 6.5698,-3.02978 14,-6.73284 z m 61.88444,0.27412 13.62501,-6.45872 0,-13.97331 0,-13.97332 -14,6.60942 -14,6.60942 0,13.82262 c 0,7.60243 0.16875,13.82261 0.37499,13.82261 0.20625,0 6.50625,-2.90642 14,-6.45872 z m 63.11556,-0.27412 13.50945,-6.73284 0,-13.76716 c 0,-7.57194 -0.22075,-13.76716 -0.49055,-13.76716 -0.2698,0 -6.5698,3.02978 -14,6.73284 l -13.50945,6.73284 0,13.76716 c 0,7.57194 0.22075,13.76716 0.49055,13.76716 0.2698,0 6.5698,-3.02978 14,-6.73284 z m 61.88444,0.27412 13.62501,-6.45872 0,-13.97331 0,-13.97332 -14,6.60942 -14,6.60942 0,13.82262 c 0,7.60243 0.16875,13.82261 0.37499,13.82261 0.20625,0 6.50625,-2.90642 14,-6.45872 z m 63.11556,-0.27412 13.50945,-6.73284 0,-13.76716 c 0,-7.57194 -0.22075,-13.76716 -0.49055,-13.76716 -0.2698,0 -6.5698,3.02978 -14,6.73284 l -13.50945,6.73284 0,13.76716 c 0,7.57194 0.22075,13.76716 0.49055,13.76716 0.2698,0 6.5698,-3.02978 14,-6.73284 z m 61.86297,0.24847 13.64648,-6.48437 0,-13.94766 0,-13.94767 -14,6.60942 -14,6.60942 0,13.82262 c 0,7.60243 0.15909,13.82261 0.35352,13.82261 0.19444,0 6.49444,-2.91797 14,-6.48437 z m 62.17714,48.43132 c -7.68313,-3.71964 -14.11042,-7.18624 -14.28286,-7.70355 -0.26161,-0.78482 27.39657,12.0902 28.66887,13.3455 1.84694,1.82227 -2.44506,0.13902 -14.38601,-5.64195 z m 0.11297,-30.11185 c -7.62101,-3.82563 -13.63133,-7.18073 -13.35627,-7.4558 0.41155,-0.41154 26.27224,11.97554 27.62931,13.23424 0.22916,0.21255 0.22916,0.56439 0,0.78185 -0.22917,0.21746 -6.65204,-2.73467 -14.27304,-6.56029 z m -483.643619,-71.62912 0,-15.79402 15.629869,-7.70598 c 8.59644,-4.23829 15.00893,-7.69542 14.25,-7.68251 -0.75893,0.0129 -7.77548,-3.0246 -15.59234,-6.75 l -14.212449,-6.77347 -0.0375,-15.75 c -0.0207,-8.6625 0.29996,-15.72639 0.71245,-15.69754 0.4125,0.0289 7.16718,3.2967 15.010399,7.26188 l 14.2604,7.20943 14.65799,-7.26188 c 8.06189,-3.99404 15.36971,-7.26256 16.2396,-7.26339 1.3845,-0.001 1.54444,1.8463 1.28335,14.82502 l -0.29827,14.82651 15.16931,7.22061 c 8.34312,3.97134 14.93182,7.4581 14.64156,7.74835 -0.29026,0.29026 -7.13077,-2.64003 -15.20113,-6.51176 l -14.6734,-7.03952 -15.15236,7.58883 -15.15236,7.58882 15.12371,7.25185 15.1237,7.25184 14.35875,-7.33552 c 7.89732,-4.03453 14.92125,-7.35307 15.60875,-7.37452 0.9488,-0.0296 1.25,3.76005 1.25,15.72698 l 0,15.76598 -14.50882,7.23402 c -7.97985,3.9787 -15.51735,7.2104 -16.75,7.18155 -1.23265,-0.0289 -8.68164,-3.30837 -16.55332,-7.28781 l -14.31213,-7.23534 -14.18786,7.2488 c -7.803329,3.98684 -14.750369,7.26635 -15.437869,7.2878 -0.94888,0.0296 -1.24999,-3.76566 -1.24999,-15.75501 z m 61.999989,0.44697 0,-14.34705 -15.03418,-7.19084 c -8.2688,-3.95497 -15.4688,-6.92224 -16,-6.59394 -1.48283,0.91645 -1.22908,24.75868 0.28418,26.70121 1.11464,1.43083 28.13668,15.59514 30,15.72529 0.4125,0.0288 0.75,-6.40379 0.75,-14.29467 z m -33,-14.6663 0,-14 -14,7.01335 -13.999999,7.01335 0,14 0,14 13.999999,-7.01335 14,-7.01335 0,-14 z m 49.01333,21.00667 13.98667,-7.00667 0,-14.02053 0,-14.02053 -14.25,7.27721 -14.25,7.2772 -0.27822,13.75 c -0.15302,7.5625 -0.0345,13.75 0.26333,13.75 0.29785,0 6.83555,-3.153 14.52822,-7.00668 z m -47.01333,-52.75931 0,-13.76598 -14.50882,-7.23402 c -7.979849,-3.9787 -14.729849,-7.23401 -14.999999,-7.23401 -0.27015,0 -0.48166,6.4125 -0.47002,14.25 l 0.0211,14.25 13.728849,6.66145 c 7.55086,3.6638 14.29134,6.7013 14.97884,6.75 0.94376,0.0669 1.25,-3.28409 1.25,-13.67744 z m 15.46711,6.33559 13.53289,-6.4304 0,-13.98893 0,-13.98892 -13.99304,6.66932 -13.99304,6.66933 -0.007,13.75 c -0.004,7.5625 0.20324,13.75 0.46014,13.75 0.25691,0 6.55691,-2.89368 14,-6.4304 z m 61.78289,48.13902 c -7.8375,-3.94692 -14.25,-7.52402 -14.25,-7.9491 0,-0.42508 6.294,2.38013 13.98667,6.2338 7.69267,3.85368 14.66767,7.00668 15.5,7.00668 1.27602,0 1.51333,-2.10708 1.51333,-13.43708 l 0,-13.43708 -15.75,-8.02172 c -8.6625,-4.41194 -15.1815,-8.04026 -14.48667,-8.06292 0.69483,-0.0227 7.54467,3.10546 15.22187,6.95139 l 13.95855,6.99258 16.13281,-7.99258 c 8.87305,-4.39593 15.46121,-7.99259 14.64035,-7.99259 -1.81141,0 -28.95905,-13.01526 -29.84586,-14.30886 -0.36047,-0.52582 -0.78734,-0.45613 -1,0.16325 -0.20408,0.59438 -7.12105,4.24721 -15.37105,8.1174 l -15,7.0367 -0.27539,-15.50425 c -0.15147,-8.52733 -0.66501,-15.50424 -1.14121,-15.50424 -1.57771,0 -28.36491,-13.05182 -27.84804,-13.56869 0.27886,-0.27886 6.82587,2.48502 14.54891,6.14195 l 14.04189,6.64898 14.72291,-7.11112 c 8.0976,-3.91112 15.67421,-7.08751 16.83692,-7.05866 1.1627,0.0289 8.55447,3.30837 16.42615,7.2878 l 14.31214,7.23535 14.18786,-7.2488 c 7.80332,-3.98684 15.08786,-7.26702 16.18786,-7.2893 1.925,-0.039 1.98881,0.51548 1.70175,14.78496 l -0.29826,14.82547 15.14643,7.24453 c 8.33053,3.98449 14.91923,7.47172 14.64155,7.7494 -0.27768,0.27767 -7.1079,-2.66291 -15.17827,-6.53465 l -14.67339,-7.03951 -15.16368,7.5945 -15.16368,7.59449 14.74377,7.02983 c 8.10908,3.86641 14.74378,7.37924 14.74378,7.80629 0,0.42705 -6.55507,-2.34413 -14.56683,-6.15818 -8.01175,-3.81405 -14.98675,-6.93464 -15.5,-6.93464 -0.53247,0 -0.93317,5.92471 -0.93317,13.79791 l 0,13.79791 15.10893,7.45209 c 8.30991,4.09865 15.50991,7.60209 16,7.78542 0.4972,0.186 0.89107,-6.45134 0.89107,-15.01598 l 0,-15.34932 14.50882,-7.23402 c 7.97986,-3.9787 14.95486,-7.23401 15.5,-7.23401 0.61299,0 0.99118,6.01556 0.99118,15.76599 l 0,15.76598 -14.50882,7.23402 c -7.97986,3.9787 -15.35986,7.23401 -16.40001,7.23401 -1.04015,0 -8.49927,-3.27437 -16.57583,-7.27638 l -14.68465,-7.27638 -14.16534,7.23737 c -7.79094,3.98056 -15.29035,7.22902 -16.66535,7.21881 -1.375,-0.0102 -8.9125,-3.24787 -16.75,-7.1948 z m 45.75,-22.72197 0,-14 -14,7.01335 -14,7.01335 0,14 0,14 14,-7.01335 14,-7.01335 0,-14 z m 49.01333,21.00667 13.98667,-7.00667 0,-14.02053 0,-14.02053 -14.25,7.27721 -14.25,7.2772 -0.27822,13.75 c -0.15302,7.5625 -0.0345,13.75 0.26333,13.75 0.29785,0 6.83555,-3.153 14.52822,-7.00668 z m -47.01333,-52.75931 0,-13.76598 -14.50882,-7.23402 c -7.97986,-3.9787 -15.19255,-7.23401 -16.02822,-7.23401 -1.29871,0 -1.47899,1.98692 -1.24118,13.67949 l 0.27822,13.67948 14.5,7.25639 c 7.975,3.99101 15.0625,7.28524 15.75,7.32051 0.94257,0.0484 1.25,-3.32153 1.25,-13.70186 z m -46.50945,6.03315 13.50945,-6.73284 0,-13.78058 0,-13.78058 -3.25,1.37594 c -1.7875,0.75677 -8.0875,3.7904 -14,6.7414 l -10.75,5.36546 0,13.77202 c 0,7.57461 0.22075,13.77202 0.49055,13.77202 0.2698,0 6.5698,-3.02978 14,-6.73284 z m 61.92236,0.2921 13.58709,-6.44074 0,-13.97554 0,-13.97554 -14,6.64861 -14,6.6486 0,13.76768 c 0,7.57222 0.18581,13.76767 0.41291,13.76767 0.22711,0 6.52711,-2.89833 14,-6.44074 z m 61.83709,48.14936 c -7.8375,-3.94692 -14.25,-7.52402 -14.25,-7.9491 0,-0.42508 6.294,2.38013 13.98667,6.2338 7.69267,3.85368 14.66767,7.00668 15.5,7.00668 1.27602,0 1.51333,-2.10708 1.51333,-13.43708 l 0,-13.43708 -15.75,-8.02172 c -8.6625,-4.41194 -15.1815,-8.04026 -14.48667,-8.06292 0.69483,-0.0227 7.54467,3.10546 15.22187,6.95139 l 13.95855,6.99258 16.13281,-7.99258 c 8.87305,-4.39593 15.46121,-7.99259 14.64035,-7.99259 -1.81141,0 -28.95905,-13.01526 -29.84586,-14.30886 -0.36258,-0.5289 -0.78609,-0.46738 -1,0.14527 -0.20408,0.58449 -7.12105,4.23136 -15.37105,8.10416 l -15,7.04144 -0.27539,-15.491 c -0.15147,-8.52006 -0.67478,-15.49101 -1.16292,-15.49101 -1.59314,0 -28.38244,-13.01259 -27.86158,-13.53344 0.27865,-0.27866 6.80999,2.47029 14.51408,6.10878 l 14.00743,6.61543 14.78986,-7.09538 c 8.13442,-3.90247 15.73456,-7.07178 16.88919,-7.04293 1.15463,0.0289 8.53979,3.30837 16.41147,7.2878 l 14.31214,7.23535 14.18786,-7.2488 c 7.80332,-3.98684 14.97536,-7.26635 15.93786,-7.2878 1.58984,-0.0354 1.75,1.3198 1.75,14.80804 l 0,14.84705 14.95496,7.15295 c 8.22522,3.93412 15.20022,7.15295 15.5,7.15295 0.29977,0 0.54504,-6.525 0.54504,-14.5 0,-7.975 -0.39375,-14.5 -0.87499,-14.5 -1.56117,0 -28.42279,-13.03556 -27.91271,-13.54564 0.27195,-0.27195 6.7978,2.48249 14.50189,6.12098 l 14.00743,6.61543 14.78986,-7.09538 c 8.13442,-3.90247 15.61809,-7.09539 16.63037,-7.09539 1.01228,0 8.36947,3.25531 16.34933,7.23401 l 14.50882,7.23402 14.50882,-7.23402 c 7.97986,-3.9787 15.29236,-7.23468 16.25,-7.23551 1.59001,-0.001 1.7153,1.28452 1.44306,14.81104 l -0.29811,14.81253 15.13754,7.2662 c 8.32565,3.99641 14.9019,7.50185 14.61389,7.78987 -0.28802,0.28801 -7.11117,-2.65808 -15.16256,-6.54688 l -14.63889,-7.07053 -14.88432,7.45458 c -9.20468,4.61002 -15.56833,7.23407 -16.67687,6.87671 -0.98591,-0.31782 -8.203,-3.57355 -16.03797,-7.23494 -9.07514,-4.24094 -14.24152,-7.2015 -14.23469,-8.15708 0.007,-0.93014 0.28984,-1.09947 0.74541,-0.44571 0.78262,1.12308 27.84796,14.44571 29.34691,14.44571 0.48828,0 0.88778,-6.20731 0.88778,-13.79402 l 0,-13.79402 -15.75,-7.76644 -15.75,-7.76645 -0.27459,15.40221 -0.27459,15.4022 -14.58547,6.86278 c -8.02201,3.77452 -15.39862,6.80151 -16.39248,6.72665 -0.99385,-0.0749 -8.40537,-3.30166 -16.47003,-7.17066 l -14.66303,-7.03454 -15.16991,7.60544 -15.1699,7.60544 15,7.20276 15,7.20277 14.7375,-7.34206 c 8.10563,-4.03813 15.19313,-7.34206 15.75,-7.34206 0.64052,0 1.0125,5.79228 1.0125,15.76599 l 0,15.76598 -14.50882,7.23402 c -7.97986,3.9787 -14.95486,7.23401 -15.5,7.23401 -0.61038,0 -0.99118,-5.70193 -0.99118,-14.84156 l 0,-14.84155 -15.01185,-7.15845 c -8.25652,-3.93714 -15.46921,-7.15844 -16.02822,-7.15844 -0.6527,0 -0.91682,4.91986 -0.73815,13.75 l 0.27822,13.75 14,7.08566 c 7.7,3.89712 14.675,7.32301 15.5,7.6131 0.825,0.29009 1.22756,0.82398 0.89458,1.18643 -0.33299,0.36244 -7.23358,-2.62532 -15.33466,-6.63948 l -14.72923,-7.29847 -14.16534,7.23737 c -7.79094,3.98056 -15.29035,7.22902 -16.66535,7.21881 -1.375,-0.0102 -8.9125,-3.24787 -16.75,-7.1948 z m 45.75,-22.72197 0,-14 -14,7.01335 -14,7.01335 0,14 0,14 14,-7.01335 14,-7.01335 0,-14 z m 49.01333,21.00667 13.98667,-7.00667 0,-14.02053 0,-14.02053 -14.25,7.27721 -14.25,7.2772 -0.27822,13.75 c -0.15302,7.5625 -0.0345,13.75 0.26333,13.75 0.29785,0 6.83555,-3.153 14.52822,-7.00668 z m -47.01333,-52.78734 0,-13.79402 -15.75,-7.76674 -15.75,-7.76674 -0.27914,13.70214 c -0.24769,12.15832 -0.0787,13.85551 1.5,15.06326 2.46664,1.88706 27.49377,14.2059 29.02914,14.2887 0.94285,0.0508 1.25,-3.3221 1.25,-13.7266 z m -46.50945,6.06118 13.50945,-6.73284 0,-13.76716 c 0,-7.57194 -0.22075,-13.76716 -0.49055,-13.76716 -0.2698,0 -6.5698,3.02978 -14,6.73284 l -13.50945,6.73284 0,13.76716 c 0,7.57194 0.22075,13.76716 0.49055,13.76716 0.2698,0 6.5698,-3.02978 14,-6.73284 z m 61.92236,0.2921 13.58709,-6.44074 0,-13.97554 0,-13.97554 -14,6.64861 -14,6.6486 0,13.76768 c 0,7.57222 0.18581,13.76767 0.41291,13.76767 0.22711,0 6.52711,-2.89833 14,-6.44074 z m 63.07764,-0.2921 13.50945,-6.73284 0,-13.76716 c 0,-7.57194 -0.22075,-13.76716 -0.49055,-13.76716 -0.2698,0 -6.5698,3.02978 -14,6.73284 l -13.50945,6.73284 0,13.76716 c 0,7.57194 0.22075,13.76716 0.49055,13.76716 0.2698,0 6.5698,-3.02978 14,-6.73284 z m 61.88444,0.27412 13.62501,-6.45872 0,-13.96181 0,-13.96181 -14,6.62163 -14,6.62162 0,13.7989 c 0,7.5894 0.16875,13.79891 0.37499,13.79891 0.20625,0 6.50625,-2.90642 14,-6.45872 z m -63.12499,48.16734 c -7.8375,-3.94692 -14.25,-7.52402 -14.25,-7.9491 0,-0.42508 6.35102,2.4087 14.11339,6.29728 7.76236,3.88859 14.73736,6.83071 15.5,6.53806 1.07879,-0.41397 1.38661,-3.27953 1.38661,-12.90849 0,-10.53082 -0.26096,-12.60717 -1.75,-13.92398 -0.9625,-0.85118 -8.05,-4.72235 -15.75,-8.60261 -7.7,-3.88026 -13.4315,-7.07858 -12.73667,-7.1074 0.69483,-0.0288 7.55247,3.09819 15.23919,6.94888 l 13.97587,7.00127 15.36158,-7.66188 15.36159,-7.66187 15.64922,7.31527 c 8.60707,4.0234 15.64922,7.70325 15.64922,8.17746 0,0.4742 -2.26188,-0.284 -5.02639,-1.68488 -8.97046,-4.54568 -24.134,-11.48663 -25.09425,-11.48663 -0.54918,0 -0.82085,5.68071 -0.65758,13.75 l 0.27822,13.75 15.5,7.84122 15.5,7.84122 0.27442,-15.40012 0.27443,-15.40012 15.4158,-7.4411 15.41581,-7.4411 0.0598,-15.755 0.0598,-15.755 14.65113,-6.995 c 15.8142,-7.55029 15.34887,-7.36183 15.34887,-6.21647 0,0.42819 -6.3,3.90285 -14,7.72147 l -14,6.94294 0,13.77853 c 0,7.57819 0.23143,13.77853 0.51428,13.77853 0.28285,0 6.40567,-2.95218 13.60626,-6.5604 7.20059,-3.60823 13.35167,-6.30073 13.66906,-5.98334 1.05613,1.05613 -1.18301,2.36843 -15.2896,8.96084 l -14,6.5426 -0.27371,15.79796 -0.2737,15.79795 -14.48512,7.2222 c -7.96681,3.9722 -15.49365,7.19858 -16.72629,7.16973 -1.23265,-0.0289 -8.68164,-3.30837 -16.55332,-7.28781 l -14.31214,-7.23534 -14.18786,7.2488 c -7.80332,3.98684 -15.31286,7.24044 -16.68786,7.23023 -1.375,-0.0102 -8.9125,-3.24787 -16.75,-7.1948 z m 45.75,-22.72197 0,-14 -14,7.01335 -14,7.01335 0,14 0,14 14,-7.01335 14,-7.01335 0,-14 z m 48.49055,21.28051 13.50945,-6.73284 0,-13.76716 c 0,-7.57194 -0.3375,-13.7483 -0.75,-13.72525 -0.4125,0.0231 -6.6,3.06055 -13.75,6.75 l -13,6.70809 -0.27822,13.75 c -0.15302,7.5625 -0.0448,13.75 0.24055,13.75 0.28532,0 6.59802,-3.02978 14.02822,-6.73284 z m 30.75945,1.38731 c -7.8375,-3.91714 -14.25,-7.46987 -14.25,-7.89495 0,-0.63008 27.51393,12.55158 28.91667,13.8537 0.22916,0.21273 0.22916,0.5615 0,0.77505 -0.22917,0.21355 -6.82917,-2.81667 -14.66667,-6.7338 z m 0.39363,-29.81937 c -7.62101,-3.82563 -13.63133,-7.18073 -13.35627,-7.4558 0.41155,-0.41154 26.27224,11.97554 27.62931,13.23424 0.22916,0.21255 0.22916,0.56439 0,0.78185 -0.22917,0.21746 -6.65204,-2.73467 -14.27304,-6.56029 z m -31.01798,-46.05258 c -7.6309,-3.77693 -13.65688,-7.08462 -13.39108,-7.35043 0.78153,-0.78152 27.76543,12.34689 27.76543,13.50865 0,0.58259 -0.1125,0.98044 -0.25,0.8841 -0.1375,-0.0963 -6.49346,-3.26539 -14.12435,-7.04232 z m -452.625639,-25.55915 0,-15.77664 14.939189,-7.41655 14.93921,-7.41655 15.90103,7.5662 15.90104,7.56619 14.90976,-7.34345 c 8.20037,-4.0389 15.24726,-7.35676 15.65976,-7.37301 0.4125,-0.0163 0.75,7.06513 0.75,15.73643 l 0,15.76598 -14.50882,7.23402 c -7.97985,3.9787 -15.51735,7.2104 -16.75,7.18155 -1.23265,-0.0288 -8.68164,-3.30837 -16.55332,-7.28781 l -14.31213,-7.23534 -14.18786,7.2488 c -7.803329,3.98684 -14.750369,7.26635 -15.437869,7.2878 -0.94882,0.0296 -1.24999,-3.76218 -1.24999,-15.73762 z m 61.999989,0.44624 0,-14.33038 -15.17616,-7.19345 c -8.40119,-3.98212 -15.55785,-6.81176 -16.03114,-6.33847 -0.47024,0.47023 -0.72846,6.66845 -0.57383,13.77383 l 0.28113,12.91886 15,7.70639 c 8.25,4.23852 15.3375,7.72602 15.75,7.75 0.4125,0.024 0.75,-6.40506 0.75,-14.28678 z m -33,-14.17629 c 0,-8.45552 -0.37868,-13.49332 -1.01427,-13.49332 -0.55786,0 -6.85786,2.92822 -14,6.50715 l -12.985729,6.50716 0,13.99952 0,13.99952 13.999999,-7.01335 14,-7.01335 0,-13.49333 z m 49.01333,20.5 13.98667,-7.00667 0,-14.02053 0,-14.02053 -14.25,7.27721 -14.25,7.2772 -0.27822,13.75 c -0.15302,7.5625 -0.0345,13.75 0.26333,13.75 0.29785,0 6.83555,-3.15301 14.52822,-7.00668 z m 30.23667,1.7153 c -7.8375,-3.94692 -14.25,-7.52383 -14.25,-7.94868 0,-0.42485 6.69815,2.58221 14.88478,6.68235 8.18663,4.10015 15.16163,7.17797 15.5,6.8396 0.33837,-0.33838 0.61522,-6.58691 0.61522,-13.88564 l 0,-13.27041 -15.75,-8.02172 c -8.6625,-4.41194 -15.1815,-8.04026 -14.48667,-8.06292 0.69483,-0.0227 7.55247,3.10937 15.23919,6.96006 l 13.97587,7.00127 15.41569,-7.68886 15.41568,-7.68886 15.59512,7.39418 c 8.57732,4.06681 15.59512,7.73265 15.59512,8.14632 0,0.41367 -6.1875,-2.20384 -13.75,-5.8167 -7.5625,-3.61285 -14.425,-6.63177 -15.25,-6.70871 -1.25394,-0.11695 -1.54537,2.07488 -1.7766,13.36179 l -0.27661,13.50169 15.53488,7.74831 c 8.54418,4.26157 15.74443,7.74831 16.00056,7.74831 0.25612,0 0.5899,-6.8625 0.74172,-15.25 l 0.27605,-15.25 14.5,-7.22634 c 7.975,-3.97448 14.8375,-7.23698 15.25,-7.25 0.4125,-0.013 0.75,7.07103 0.75,15.74233 l 0,15.76598 -14.50882,7.23402 c -7.97986,3.9787 -15.51736,7.2104 -16.75,7.18155 -1.23265,-0.0288 -8.68164,-3.30837 -16.55332,-7.28781 l -14.31214,-7.23534 -14.18786,7.2488 c -7.80332,3.98684 -15.31286,7.24044 -16.68786,7.23023 -1.375,-0.0102 -8.9125,-3.24787 -16.75,-7.1948 z m 45.75,-22.72197 0,-14 -14,7.01335 -14,7.01335 0,14 0,14 14,-7.01335 14,-7.01335 0,-14 z m 49.01333,21.00667 13.98667,-7.00667 0,-14.02053 0,-14.02053 -14.25,7.27721 -14.25,7.2772 -0.27822,13.75 c -0.15302,7.5625 -0.0345,13.75 0.26333,13.75 0.29785,0 6.83555,-3.15301 14.52822,-7.00668 z m 30.23667,1.7153 c -7.8375,-3.94692 -14.25,-7.52383 -14.25,-7.94868 0,-0.42485 6.69815,2.58221 14.88478,6.68235 8.18663,4.10015 15.16163,7.17797 15.5,6.8396 0.33837,-0.33838 0.61522,-6.58691 0.61522,-13.88564 l 0,-13.27041 -15.75,-8.02172 c -8.6625,-4.41194 -15.1815,-8.04026 -14.48667,-8.06292 0.69483,-0.0227 7.55247,3.10937 15.23919,6.96006 l 13.97587,7.00127 15.41569,-7.68886 15.41568,-7.68886 15.59512,7.39418 c 8.57732,4.06681 15.59512,7.73265 15.59512,8.14632 0,0.41367 -6.1875,-2.20384 -13.75,-5.8167 -7.5625,-3.61285 -14.425,-6.63177 -15.25,-6.70871 -1.25401,-0.11696 -1.54537,2.07621 -1.77668,13.37349 l -0.27668,13.51339 15.27668,7.48267 c 17.93433,8.78442 16.24504,7.85552 15.55004,8.55053 -0.30799,0.30798 -7.16108,-2.74646 -15.2291,-6.78766 l -14.66912,-7.34764 -14.18757,7.24865 c -7.80316,3.98676 -15.31257,7.2403 -16.68757,7.23009 -1.375,-0.0102 -8.9125,-3.24787 -16.75,-7.1948 z m 45.75,-22.72197 0,-14 -14,7.01335 -14,7.01335 0,14 0,14 14,-7.01335 14,-7.01335 0,-14 z m 33.22461,14.26335 0.27539,-15.75 14,-7.20718 c 7.7,-3.96396 14.5625,-7.22646 15.25,-7.25 0.94895,-0.0325 1.25,3.75421 1.25,15.72317 l 0,15.76598 -14.50882,7.23402 c -7.97986,3.9787 -14.96628,7.23401 -15.5254,7.23401 -0.65738,0 -0.91926,-5.56492 -0.74117,-15.75 z m 15.78872,6.74332 13.98667,-7.00667 0,-14.02053 0,-14.02053 -14.25,7.27721 -14.25,7.2772 -0.27822,13.75 c -0.15302,7.5625 -0.0345,13.75 0.26333,13.75 0.29785,0 6.83555,-3.15301 14.52822,-7.00668 z m 30.23667,1.7153 c -7.8375,-3.94692 -14.25,-7.52402 -14.25,-7.9491 0,-0.42508 6.35102,2.4087 14.11339,6.29728 7.76236,3.88859 14.73736,6.83071 15.5,6.53806 1.07879,-0.41397 1.38661,-3.27954 1.38661,-12.90849 0,-10.53082 -0.26096,-12.60717 -1.75,-13.92399 -0.9625,-0.85117 -8.05,-4.72234 -15.75,-8.6026 -7.7,-3.88026 -13.4315,-7.07858 -12.73667,-7.1074 0.69483,-0.0288 7.55247,3.09819 15.23919,6.94888 l 13.97587,7.00127 15.42143,-7.69173 15.42144,-7.69173 15.58075,7.44047 c 8.56941,4.09225 15.58462,7.75236 15.58937,8.13357 0.009,0.74811 -10.06422,-3.68575 -21.78279,-9.58771 -4.01027,-2.01974 -7.72277,-3.40565 -8.25,-3.07981 -0.53315,0.32951 -0.95859,6.45343 -0.95859,13.79839 l 0,13.20594 15.50827,7.73504 c 8.52955,4.25427 15.72955,7.73504 16,7.73504 0.27045,0 0.49173,-6.88406 0.49173,-15.29791 l 0,-15.29791 14.75,-7.22265 c 8.1125,-3.97247 15.0875,-7.21341 15.5,-7.2021 0.4125,0.0113 0.75,7.11526 0.75,15.78656 l 0,15.76598 -14.50882,7.23402 c -7.97986,3.9787 -15.51736,7.2104 -16.75,7.18155 -1.23265,-0.0288 -8.68164,-3.30837 -16.55332,-7.28781 l -14.31214,-7.23534 -14.18786,7.2488 c -7.80332,3.98684 -15.31286,7.24044 -16.68786,7.23023 -1.375,-0.0102 -8.9125,-3.24787 -16.75,-7.1948 z m 45.75,-22.72197 0,-14 -14,7.01335 -14,7.01335 0,14 0,14 14,-7.01335 14,-7.01335 0,-14 z m 48.49055,21.28051 13.50945,-6.73284 0,-13.76716 c 0,-7.57194 -0.3375,-13.7483 -0.75,-13.72525 -0.4125,0.0231 -6.6,3.06055 -13.75,6.75 l -13,6.70809 -0.27822,13.75 c -0.15302,7.5625 -0.0448,13.75 0.24055,13.75 0.28532,0 6.59802,-3.02978 14.02822,-6.73284 z m 30.75945,1.38731 c -7.8375,-3.91714 -14.25,-7.46987 -14.25,-7.89495 0,-0.63008 27.51393,12.55158 28.91667,13.8537 0.22916,0.21273 0.22916,0.5615 0,0.77505 -0.22917,0.21354 -6.82917,-2.81667 -14.66667,-6.7338 z m 0.39363,-29.81937 c -7.62101,-3.82563 -13.63133,-7.18073 -13.35627,-7.4558 0.41155,-0.41154 26.27224,11.97554 27.62931,13.23424 0.22916,0.21255 0.22916,0.56439 0,0.78185 -0.22917,0.21746 -6.65204,-2.73467 -14.27304,-6.56029 z"
       id="path3419"
       inkscape:connector-curvature="0" />
  </g>
</svg>
